# xmcd
# 
# Track frame offsets:
#     182
#     2117
#     40922
#     99332
#     159442
#     209732
#     225750
#     279405
# 
# Disc length: 3760
# 
# Revision: 0
# Processed by: cddbd v1.5.2PL0 Copyright (c) Steve Scherf et al.
# Submitted via: BonkEnc v1.0.8
# 
DISCID=5b0eae08
DTITLE=Ed Blackwell - What It Is?
DYEAR=1992
DGENRE=Contemporary Jazz
TTITLE0=Introduction
TTITLE1='Nette
TTITLE2=Pettiford Bridge
TTITLE3=Beau Regard
TTITLE4=Thumbs Up
TTITLE5=Mallet Song
TTITLE6=Rosa Takes A Stand (For Rosa Parks)
TTITLE7=Applause
EXTD=YEAR: 1999
EXTT0=
EXTT1=
EXTT2=
EXTT3=
EXTT4=
EXTT5=
EXTT6=
EXTT7=
PLAYORDER=
